<?xml version="1.0" encoding="UTF-8" standalone="no"?>
<svg
   xmlns:dc="http://purl.org/dc/elements/1.1/"
   xmlns:cc="http://creativecommons.org/ns#"
   xmlns:rdf="http://www.w3.org/1999/02/22-rdf-syntax-ns#"
   xmlns:svg="http://www.w3.org/2000/svg"
   xmlns="http://www.w3.org/2000/svg"
   xmlns:sodipodi="http://sodipodi.sourceforge.net/DTD/sodipodi-0.dtd"
   xmlns:inkscape="http://www.inkscape.org/namespaces/inkscape"
   id="Capa_1"
   data-name="Capa 1"
   viewBox="0 0 124.70001 144"
   version="1.1"
   sodipodi:docname="logo.svg"
   inkscape:version="1.0.1 (0767f8302a, 2020-10-17)"
   width="124.7"
   height="144"
   inkscape:export-filename="/home/pablo/Dropbox/Dev/R/rolldown/vignettes/img/logo.png"
   inkscape:export-xdpi="299.26001"
   inkscape:export-ydpi="299.26001">
  <metadata
     id="metadata35">
    <rdf:RDF>
      <cc:Work
         rdf:about="">
        <dc:format>image/svg+xml</dc:format>
        <dc:type
           rdf:resource="http://purl.org/dc/dcmitype/StillImage" />
        <dc:title>simmer-hex-1</dc:title>
      </cc:Work>
    </rdf:RDF>
  </metadata>
  <sodipodi:namedview
     pagecolor="#ffffff"
     bordercolor="#666666"
     borderopacity="1"
     objecttolerance="10"
     gridtolerance="10"
     guidetolerance="10"
     inkscape:pageopacity="0"
     inkscape:pageshadow="2"
     inkscape:window-width="1920"
     inkscape:window-height="982"
     id="namedview33"
     showgrid="false"
     inkscape:zoom="3.0481002"
     inkscape:cx="-17.472408"
     inkscape:cy="67.554229"
     inkscape:window-x="0"
     inkscape:window-y="27"
     inkscape:window-maximized="1"
     inkscape:current-layer="Capa_1"
     inkscape:measure-start="20.7458,344.746"
     inkscape:measure-end="0,0"
     inkscape:document-rotation="0"
     fit-margin-top="0"
     fit-margin-left="0"
     fit-margin-right="0"
     fit-margin-bottom="0" />
  <defs
     id="defs4">
    <style
       id="style2">.cls-1{fill:#ffdb06;}.cls-2{fill:#dcb808;}.cls-3{fill:#1e120d;}.cls-4{fill:#fff;}</style>
    <clipPath
       id="clipPath2832">
      <path
         inkscape:connector-curvature="0"
         id="path2834"
         d="M -0.24,595.138 H 317.24 V -0.138 H -0.24 Z" />
    </clipPath>
    <clipPath
       id="clipPath2840">
      <path
         inkscape:connector-curvature="0"
         id="path2842"
         d="M 0.03,595.32 H 317.49 V 0 H 0.03 Z" />
    </clipPath>
    <clipPath
       id="clipPath2858">
      <path
         inkscape:connector-curvature="0"
         id="path2860"
         d="M -0.24,595.138 H 317.24 V -0.138 H -0.24 Z" />
    </clipPath>
    <clipPath
       id="clipPath2864">
      <path
         inkscape:connector-curvature="0"
         id="path2866"
         d="M 0.03,595.32 H 317.49 V 0 H 0.03 Z" />
    </clipPath>
    <clipPath
       id="clipPath3306">
      <path
         inkscape:connector-curvature="0"
         id="path3308"
         d="m 199.238,472.977 v -29.74 h 29.744 v 29.74" />
    </clipPath>
    <clipPath
       id="clipPath3322">
      <path
         inkscape:connector-curvature="0"
         id="path3324"
         d="M -0.24,595.138 H 317.24 V -0.138 H -0.24 Z" />
    </clipPath>
    <clipPath
       id="clipPath3330">
      <path
         inkscape:connector-curvature="0"
         id="path3332"
         d="M 0.03,595.32 H 317.49 V 0 H 0.03 Z" />
    </clipPath>
    <clipPath
       id="clipPath3344">
      <path
         inkscape:connector-curvature="0"
         id="path3346"
         d="m 88.233,387.221 v -28.335 h 32.08 v 28.335" />
    </clipPath>
    <clipPath
       id="clipPath3462">
      <path
         inkscape:connector-curvature="0"
         id="path3464"
         d="M -0.24,595.138 H 317.24 V -0.138 H -0.24 Z" />
    </clipPath>
    <clipPath
       id="clipPath3470">
      <path
         inkscape:connector-curvature="0"
         id="path3472"
         d="M 0.03,595.32 H 317.49 V 0 H 0.03 Z" />
    </clipPath>
    <clipPath
       id="clipPath3490">
      <path
         inkscape:connector-curvature="0"
         id="path3492"
         d="M -0.24,595.138 H 317.24 V -0.138 H -0.24 Z" />
    </clipPath>
    <clipPath
       id="clipPath3496">
      <path
         inkscape:connector-curvature="0"
         id="path3498"
         d="M 0.03,595.32 H 317.49 V 0 H 0.03 Z" />
    </clipPath>
    <clipPath
       id="clipPath3520">
      <path
         inkscape:connector-curvature="0"
         id="path3522"
         d="m 254.788,326.215 v -28.309 h 28.326 v 28.309" />
    </clipPath>
    <clipPath
       id="clipPath3544">
      <path
         inkscape:connector-curvature="0"
         id="path3546"
         d="m 145.049,326.142 v -28.333 h 28.342 v 28.333" />
    </clipPath>
    <clipPath
       id="clipPath3682">
      <path
         inkscape:connector-curvature="0"
         id="path3684"
         d="M -0.24,595.138 H 317.24 V -0.138 H -0.24 Z" />
    </clipPath>
    <clipPath
       id="clipPath3690">
      <path
         inkscape:connector-curvature="0"
         id="path3692"
         d="M 0.03,595.32 H 317.49 V 0 H 0.03 Z" />
    </clipPath>
    <clipPath
       id="clipPath3980">
      <path
         inkscape:connector-curvature="0"
         id="path3982"
         d="M -0.24,595.138 H 317.24 V -0.138 H -0.24 Z" />
    </clipPath>
    <clipPath
       id="clipPath3988">
      <path
         inkscape:connector-curvature="0"
         id="path3990"
         d="M 0.03,595.32 H 317.49 V 0 H 0.03 Z" />
    </clipPath>
    <clipPath
       id="clipPath4010">
      <path
         inkscape:connector-curvature="0"
         id="path4012"
         d="M -0.24,595.138 H 317.24 V -0.138 H -0.24 Z" />
    </clipPath>
    <clipPath
       id="clipPath4016">
      <path
         inkscape:connector-curvature="0"
         id="path4018"
         d="M 0.03,595.32 H 317.49 V 0 H 0.03 Z" />
    </clipPath>
    <clipPath
       id="clipPath4062">
      <path
         inkscape:connector-curvature="0"
         id="path4064"
         d="m 200.163,177.773 v -28.284 h 28.283 v 28.284" />
    </clipPath>
    <clipPath
       id="clipPath4090">
      <path
         inkscape:connector-curvature="0"
         id="path4092"
         d="m 34.886,177.515 v -51.632 h 30.367 v 51.632" />
    </clipPath>
    <clipPath
       id="clipPath4106">
      <path
         inkscape:connector-curvature="0"
         id="path4108"
         d="m 34.886,177.515 v -51.632 h 30.367 v 51.632" />
    </clipPath>
    <clipPath
       id="clipPath4272">
      <path
         inkscape:connector-curvature="0"
         id="path4274"
         d="m 34.886,177.515 v -51.632 h 30.367 v 51.632" />
    </clipPath>
    <clipPath
       id="clipPath4304">
      <path
         inkscape:connector-curvature="0"
         id="path4306"
         d="m 254.653,176.442 v -48.167 h 28.317 v 48.167" />
    </clipPath>
    <clipPath
       id="clipPath4310">
      <path
         inkscape:connector-curvature="0"
         id="path4312"
         d="m 253.565,177.983 h 31.181 V 128.8 h -31.181 z" />
    </clipPath>
    <clipPath
       id="clipPath4316">
      <path
         inkscape:connector-curvature="0"
         id="path4318"
         d="M -0.24,595.138 H 317.24 V -0.138 H -0.24 Z" />
    </clipPath>
    <clipPath
       id="clipPath4322">
      <path
         inkscape:connector-curvature="0"
         id="path4324"
         d="M 0.03,595.32 H 317.49 V 0 H 0.03 Z" />
    </clipPath>
    <clipPath
       id="clipPath4456">
      <path
         inkscape:connector-curvature="0"
         id="path4458"
         d="M -0.24,595.138 H 317.24 V -0.138 H -0.24 Z" />
    </clipPath>
    <clipPath
       id="clipPath4464">
      <path
         inkscape:connector-curvature="0"
         id="path4466"
         d="M 0.03,595.32 H 317.49 V 0 H 0.03 Z" />
    </clipPath>
  </defs>
  <title
     id="title6">simmer-hex-1</title>
  <polygon
     class="cls-1"
     points="62.35,140.76 2.81,106.38 2.81,37.62 62.36,3.24 121.9,37.62 121.9,106.38 "
     id="polygon903"
     inkscape:export-xdpi="299.26001"
     inkscape:export-ydpi="299.26001"
     style="fill:#d5fff6"
     inkscape:export-filename="C:\Users\Pablo\Desktop\path991.png"
     transform="translate(-198.93164,-382.47255)" />
  <polygon
     style="fill:#ff6600"
     inkscape:export-ydpi="299.26001"
     inkscape:export-xdpi="299.26001"
     id="polygon865"
     points="2.81,37.62 62.36,3.24 121.9,37.62 121.9,106.38 62.35,140.76 2.81,106.38 "
     class="cls-1"
     transform="matrix(0.95119354,0,0,0.95119354,-157.02561,3.4230377)" />
  <text
     xml:space="preserve"
     style="font-style:normal;font-weight:normal;font-size:18.6667px;line-height:1.25;font-family:sans-serif;letter-spacing:0px;word-spacing:0px;fill:#ff0000;fill-opacity:1;stroke:none"
     x="-197.20509"
     y="-28.041344"
     id="text844"
     inkscape:export-filename="C:\Users\Pablo\Desktop\path991.png"
     inkscape:export-xdpi="299.26001"
     inkscape:export-ydpi="299.26001"><tspan
       sodipodi:role="line"
       id="tspan842"
       x="-197.20509"
       y="-28.041344"
       style="font-style:normal;font-variant:normal;font-weight:normal;font-stretch:normal;font-family:'Monotype Corsiva';-inkscape-font-specification:'Monotype Corsiva';fill:#ff0000">consRvative</tspan></text>
  <g
     id="g905"
     style="fill:none"
     transform="translate(-2.0689426,-0.0910274)">
    <g
       id="g863"
       transform="matrix(1.1397847,0,0,1.1397847,19.840345,-0.8104482)"
       style="fill:none">
      <path
         inkscape:connector-curvature="0"
         id="path859"
         d="m -150.71186,75.355932 c 34.77966,67.118648 35.69491,-25.322034 49.42372,-25.322034"
         style="fill:none;stroke:#000000;stroke-width:1px;stroke-linecap:butt;stroke-linejoin:miter;stroke-opacity:1" />
      <path
         style="fill:none;stroke:#000000;stroke-width:1px;stroke-linecap:butt;stroke-linejoin:miter;stroke-opacity:1"
         d="M -51.93228,75.355932 C -86.71194,142.47458 -87.62719,50.033898 -101.356,50.033898"
         id="path861"
         inkscape:connector-curvature="0" />
    </g>
    <path
       style="color:#000000;font-style:normal;font-variant:normal;font-weight:normal;font-stretch:normal;font-size:medium;line-height:normal;font-family:sans-serif;font-variant-ligatures:normal;font-variant-position:normal;font-variant-caps:normal;font-variant-numeric:normal;font-variant-alternates:normal;font-feature-settings:normal;text-indent:0;text-align:start;text-decoration:none;text-decoration-line:none;text-decoration-style:solid;text-decoration-color:#000000;letter-spacing:normal;word-spacing:normal;text-transform:none;writing-mode:lr-tb;direction:ltr;text-orientation:mixed;dominant-baseline:auto;baseline-shift:baseline;text-anchor:start;white-space:normal;shape-padding:0;clip-rule:nonzero;display:inline;overflow:visible;visibility:visible;opacity:1;isolation:auto;mix-blend-mode:normal;color-interpolation:sRGB;color-interpolation-filters:linearRGB;solid-color:#000000;solid-opacity:1;vector-effect:none;fill:#000000;fill-opacity:1;fill-rule:nonzero;stroke:none;stroke-width:1px;stroke-linecap:butt;stroke-linejoin:miter;stroke-miterlimit:4;stroke-dasharray:none;stroke-dashoffset:0;stroke-opacity:1;color-rendering:auto;image-rendering:auto;shape-rendering:auto;text-rendering:auto;enable-background:accumulate"
       d="m -152.43945,85.070312 -0.34961,19.917968 57.138669,32.99219 57.148438,-32.99219 -0.349609,-19.917968 -1,0.01758 0.339843,19.328128 -56.138672,32.41015 -56.128909,-32.41015 0.33985,-19.328128 z"
       id="path899"
       inkscape:connector-curvature="0" />
  </g>
  <polygon
     style="fill:#ff6600"
     inkscape:export-ydpi="299.26001"
     inkscape:export-xdpi="299.26001"
     id="polygon975"
     points="121.9,106.38 62.35,140.76 2.81,106.38 2.81,37.62 62.36,3.24 121.9,37.62 "
     class="cls-1"
     transform="translate(157.93106,-0.0910274)" />
  <path
     style="fill:#ffb380"
     inkscape:export-ydpi="299.26001"
     inkscape:export-xdpi="299.26001"
     id="path977"
     d="m 220.28106,6.3889726 56.74,32.7600004 v 65.519997 l -56.74,32.76 -56.74,-32.76 V 39.148973 l 56.74,-32.7600004 m 0,-6.48 -62.35,36.0000004 v 71.999997 l 62.35,36 62.35,-36 V 35.908973 Z"
     class="cls-2"
     inkscape:connector-curvature="0" />
  <text
     id="text981"
     y="45.06152"
     x="178.73268"
     style="font-style:normal;font-weight:normal;font-size:18.6667px;line-height:1.25;font-family:sans-serif;letter-spacing:0px;word-spacing:0px;fill:#ffffff;fill-opacity:1;stroke:none"
     xml:space="preserve"><tspan
       style="font-style:normal;font-variant:normal;font-weight:normal;font-stretch:normal;font-family:'Monotype Corsiva';-inkscape-font-specification:'Monotype Corsiva';fill:#ffffff"
       y="45.06152"
       x="178.73268"
       id="tspan979"
       sodipodi:role="line">consRvative</tspan></text>
  <g
     style="stroke:#000000;stroke-width:0.438679;stroke-miterlimit:4;stroke-dasharray:none;stroke-opacity:1"
     transform="matrix(1.1397847,0,0,1.1397847,335.92485,-0.9014756)"
     id="g987">
    <path
       style="fill:none;stroke:#000000;stroke-width:0.438679;stroke-linecap:butt;stroke-linejoin:miter;stroke-miterlimit:4;stroke-dasharray:none;stroke-opacity:1"
       d="m -150.71186,75.355932 c 34.77966,67.118648 35.69491,-25.322034 49.42372,-25.322034"
       id="path983"
       inkscape:connector-curvature="0" />
    <path
       inkscape:connector-curvature="0"
       id="path985"
       d="M -51.93228,75.355932 C -86.71194,142.47458 -87.62719,50.033898 -101.356,50.033898"
       style="fill:none;stroke:#000000;stroke-width:0.438679;stroke-linecap:butt;stroke-linejoin:miter;stroke-miterlimit:4;stroke-dasharray:none;stroke-opacity:1" />
  </g>
  <path
     style="fill:#88aa00"
     d="m -136.66796,-298.05458 c -3.53164,0.10985 -7.09792,2.88411 -10.78907,8.32617 -3.90243,5.75359 -7.02351,12.39548 -15.11914,32.17188 -0.0957,0.2337 -0.18596,0.44027 -0.28125,0.67187 l 26.27539,15.17188 26.32227,-15.19532 c -8.80354,-20.78573 -12.47576,-28.58047 -15.82031,-33.48437 -3.5578,-5.21659 -7.05626,-7.77196 -10.58789,-7.66211 z"
     id="polygon882"
     inkscape:connector-curvature="0"
     inkscape:export-filename="C:\Users\Pablo\Desktop\path991.png"
     inkscape:export-xdpi="299.26001"
     inkscape:export-ydpi="299.26001" />
  <path
     inkscape:export-filename="C:\Users\Pablo\Desktop\path991.png"
     style="fill:#aad400"
     inkscape:export-ydpi="299.26001"
     inkscape:export-xdpi="299.26001"
     id="path886"
     d="m -136.58164,-375.99255 56.740002,32.76 v 65.52 l -56.740002,32.76 -56.74,-32.76 v -65.52 l 56.74,-32.76 m 0,-6.48 -62.35,36 v 72 l 62.35,36 62.350002,-36 v -72 z"
     class="cls-2"
     inkscape:connector-curvature="0" />
  <path
     sodipodi:nodetypes="sssss"
     inkscape:connector-curvature="0"
     id="path888"
     d="m -127.18211,-306.22563 c -1.50527,5.61776 -6.76957,9.08825 -11.75814,7.75157 -4.98857,-1.33668 -7.81234,-6.97437 -6.30707,-12.59213 1.50528,-5.61775 7.57817,-12.10594 12.56674,-10.76926 4.98856,1.33668 7.00375,9.99205 5.49847,15.60982 z"
     style="opacity:0.98;fill:#ffffff;fill-opacity:1;stroke:#000000;stroke-width:0.156207;stroke-miterlimit:4;stroke-dasharray:none;stroke-dashoffset:0;stroke-opacity:1"
     inkscape:export-filename="C:\Users\Pablo\Desktop\path991.png"
     inkscape:export-xdpi="299.26001"
     inkscape:export-ydpi="299.26001" />
  <text
     xml:space="preserve"
     style="font-style:normal;font-weight:normal;font-size:18.6667px;line-height:1.25;font-family:sans-serif;letter-spacing:0px;word-spacing:0px;fill:#ff6600;fill-opacity:1;stroke:none"
     x="-172.12807"
     y="-343.0694"
     id="text892"
     inkscape:export-filename="C:\Users\Pablo\Desktop\path991.png"
     inkscape:export-xdpi="299.26001"
     inkscape:export-ydpi="299.26001"><tspan
       sodipodi:role="line"
       id="tspan890"
       x="-172.12807"
       y="-343.0694"
       style="font-style:normal;font-variant:normal;font-weight:normal;font-stretch:normal;font-family:'Rockwell Condensed';-inkscape-font-specification:'Rockwell Condensed, ';fill:#ff6600">consRvative</tspan></text>
  <path
     style="fill:#ec1d24;fill-opacity:1;fill-rule:evenodd;stroke:none"
     d="m -213.8449,63.112383 c 8.5855,0 16.45648,-4.5216 20.6875,-11.90625 4.25346,-7.37342 4.25346,-16.47912 0,-23.875 L -349.31365,-243.01262 c -4.27592,-7.37342 -12.09802,-11.875 -20.59374,-11.875 -0.0312,0 -0.0625,-1.2e-4 -0.0937,0 -0.0312,-1.2e-4 -0.0625,0 -0.0937,0 -8.49572,0 -16.31784,4.50158 -20.59375,11.875 L -546.84488,27.331133 c -4.25347,7.39588 -4.25347,16.50158 0,23.875 4.23102,7.38465 12.10199,11.90625 20.6875,11.90625 z"
     id="path3101"
     inkscape:connector-curvature="0"
     sodipodi:nodetypes="scccscscccss" />
  <path
     inkscape:connector-curvature="0"
     style="fill:#ffffff;fill-opacity:1;fill-rule:evenodd;stroke:none"
     id="path3121"
     d="m -512.38015,31.295493 h 284.75784 l -142.379,-246.476653 z"
     sodipodi:nodetypes="cccc" />
  <polygon
     class="cls-1"
     points="121.9,106.38 62.35,140.76 2.81,106.38 2.81,37.62 62.36,3.24 121.9,37.62 "
     id="polygon985"
     inkscape:export-xdpi="299.26001"
     inkscape:export-ydpi="299.26001"
     style="fill:#ffffff;fill-opacity:1"
     inkscape:export-filename="C:\Users\Pablo\Desktop\path991.png" />
  <path
     style="fill:#000000;fill-opacity:1;stroke:#000000;stroke-width:1px;stroke-linecap:butt;stroke-linejoin:miter;stroke-opacity:1"
     d="M 23.633752,29.2397 24.881356,36 l 2.795793,4.97887 3.521677,10.30415 -0.130433,5.73902 0.912761,3.26081 2.347786,6.39118 2.347776,8.4781 3.458878,4.1699 -0.719794,4.43837 9.567251,15.392144 9.964512,4.387116 6.660747,7.3321 8.25897,1.23304 17.947655,11.89567 L 62.35,140.76 5.61,104.76 V 39.24 Z"
     id="path1010"
     inkscape:connector-curvature="0"
     sodipodi:nodetypes="ccccccccccccccccccc"
     inkscape:export-filename="C:\Users\Pablo\Desktop\path991.png"
     inkscape:export-xdpi="299.26001"
     inkscape:export-ydpi="299.26001" />
  <path
     inkscape:connector-curvature="0"
     class="cls-2"
     d="m 62.35,6.48 56.74001,32.76 v 65.52 L 62.35,137.51999 5.61,104.76 V 39.24 L 62.35,6.48 M 62.35,0 0,36 v 72 L 62.35,143.99999 124.70001,108 V 36 Z"
     id="path987"
     inkscape:export-xdpi="299.26001"
     inkscape:export-ydpi="299.26001"
     style="fill:#ec1d24;fill-opacity:1"
     inkscape:export-filename="C:\Users\Pablo\Desktop\path991.png" />
  <path
     inkscape:connector-curvature="0"
     style="fill:#000000;fill-rule:nonzero;stroke:none;stroke-width:0.504996"
     d="m 72.167065,81.94279 c -0.464798,0.0366 -1.998844,0.32182 -2.238716,0.26055 -0.352315,-0.0737 -0.879054,0.0554 -1.345606,0.18583 -0.588117,0.12764 -1.481763,0.52836 -1.69921,0.89615 -0.18025,0.28863 -1.969615,2.16669 -2.418404,2.46357 -0.369539,0.23889 -0.786271,0.5922 -0.952979,0.8092 -0.21763,0.26844 -0.412993,0.55407 -0.659286,0.83318 -0.959515,1.24445 -1.467324,1.79374 -2.10964,4.11485 -0.147539,0.43853 -0.168119,1.21206 -0.425487,1.59138 -0.147238,0.36229 -0.122756,1.9608 0.200911,2.97292 0.10584,0.26821 0.839977,2.35157 2.772322,4.06969 1.829576,1.77478 5.059277,4.40586 5.526517,4.73787 1.48483,0.93419 2.019851,1.23978 4.210694,0.93486 1.606191,-0.17647 1.877822,-0.34586 3.54834,-0.006 0.637499,0.0355 2.298923,0.63872 3.131759,-0.33579 0.309063,-0.40347 1.433551,-1.51741 2.541293,-2.15787 1.07023,-0.73166 1.45452,-1.21651 1.91794,-1.76528 1.363534,-1.760826 1.901224,-2.038626 1.998742,-4.56738 -0.0029,-0.75414 -0.07413,-3.04124 -0.01813,-3.4015 -0.0071,-0.23886 -0.120349,-1.49635 -0.284802,-1.94497 -0.285523,-0.36329 -0.90555,-2.26528 -0.971106,-2.59229 -0.135296,-0.37824 -0.73589,-1.46026 -0.749297,-1.68722 -0.216151,-0.34405 -1.52123,-2.16236 -2.451588,-2.56525 -0.480067,-0.16039 -1.054225,-0.50821 -1.126872,-0.68325 -0.06339,-0.26713 -0.220344,-0.452 -0.551454,-0.48847 -0.34625,-0.10451 -2.047297,-0.88903 -2.44851,-0.79108 -0.46857,0.003 -0.846322,-0.11399 -1.162815,-0.2427 -0.353875,-0.0981 -3.265976,-0.80929 -4.234657,-0.64115 z"
     id="path17"
     inkscape:export-filename="C:\Users\Pablo\Desktop\path991.png"
     inkscape:export-xdpi="299.26001"
     inkscape:export-ydpi="299.26001" />
  <path
     inkscape:connector-curvature="0"
     style="fill:#000000;fill-rule:nonzero;stroke:none;stroke-width:0.504996"
     d="m 53.955013,85.92648 c -0.301628,-0.18781 -1.007337,-0.50321 -1.480472,0.027 -0.558552,0.50436 -1.669094,1.44735 -1.929932,1.91213 -0.16474,0.53351 -0.704034,1.86726 -0.239624,2.93696 0.937493,2.11296 1.770081,3.06194 3.45557,2.94283 0.491955,-0.0361 1.103871,-0.15824 1.333619,-0.039 0.362447,0.0148 1.107061,-0.13989 1.357582,-0.33271 0.389903,-0.27093 1.613916,-1.03201 1.893988,-1.47155 0.231908,-0.5523 0.419882,-1.269 -0.14992,-1.78617 -0.458997,-0.59978 -1.170198,-1.90604 -1.300763,-2.1757 -0.17001,-0.27168 -0.25617,-0.79551 -0.662353,-0.941 C 55.804,86.81825 53.955013,85.92649 53.955013,85.92649 Z"
     id="path19"
     inkscape:export-filename="C:\Users\Pablo\Desktop\path991.png"
     inkscape:export-xdpi="299.26001"
     inkscape:export-ydpi="299.26001" />
  <path
     inkscape:connector-curvature="0"
     style="fill:#000000;fill-rule:nonzero;stroke:none;stroke-width:0.504996"
     d="m 47.993468,70.21394 c -0.556451,-0.0939 -1.981904,-0.0381 -2.385528,0.24883 -0.407756,0.16364 -0.629151,0.2319 -0.806136,0.82119 -0.269595,0.66628 -0.825699,2.2133 -0.949903,2.58338 -0.110107,0.38541 -0.514791,1.1276 -0.155756,1.90903 0.277851,0.90667 1.792505,2.9248 2.109958,3.12868 0.253206,0.18682 0.899135,0.71316 1.603361,0.27865 0.833356,-0.47364 1.773956,-0.9137 2.151739,-1.00706 0.368579,-0.25611 2.102502,-1.65027 1.744059,-3.25771 -0.130758,-1.00643 -0.294231,-2.69908 -0.911209,-3.32654 -0.489411,-0.58215 -1.374592,-1.34325 -2.400586,-1.37846 z"
     id="path21"
     inkscape:export-filename="C:\Users\Pablo\Desktop\path991.png"
     inkscape:export-xdpi="299.26001"
     inkscape:export-ydpi="299.26001" />
  <path
     inkscape:connector-curvature="0"
     style="fill:#000000;fill-rule:nonzero;stroke:none;stroke-width:0.504996"
     d="m 73.134467,68.27384 c -0.05623,-0.30321 -0.619637,-1.05875 -2.142834,-0.91397 -2.424343,0.22435 -4.976082,0.89428 -6.395309,2.28692 -0.493114,0.4127 -1.079728,1.26836 -1.04883,1.98399 -0.07085,0.83151 -0.212802,0.99201 -0.119813,1.4685 -0.0058,0.56423 -0.08952,1.5904 -0.155754,1.90904 0.01739,0.27992 -0.112787,1.34547 0.725335,1.98092 0.960192,0.54488 1.366136,0.75836 1.690317,1.02487 0.734011,0.77301 0.859458,0.895 1.97201,1.19568 0.554442,0.0967 3.701307,0.56866 4.087816,0.62917 0.390564,-0.0835 1.213376,-0.1452 1.540377,-0.76128 0.461993,-0.61096 1.112879,-1.20357 1.294609,-1.37264 0.281375,-0.22362 1.47959,-1.71942 1.255586,-2.70626 -0.128915,-1.02165 -0.481763,-3.03132 -0.470666,-3.29059 -0.04738,-0.34624 -0.127235,-0.95529 -0.491549,-1.22272 -0.363874,-0.30878 -1.370112,-1.16608 -1.741298,-2.21163 z"
     id="path23"
     inkscape:export-filename="C:\Users\Pablo\Desktop\path991.png"
     inkscape:export-xdpi="299.26001"
     inkscape:export-ydpi="299.26001" />
  <path
     inkscape:connector-curvature="0"
     style="fill:#000000;fill-rule:nonzero;stroke:none;stroke-width:0.504996"
     d="m 49.679754,47.73403 c -0.228616,-0.30721 -0.422338,-0.45488 -0.722271,-0.20675 -0.33352,0.13065 -0.999351,0.37732 -1.075868,0.50353 -0.122356,0.20229 -0.357059,0.44095 -0.635323,0.53947 -0.170946,0.12382 -0.751013,0.37747 -0.940999,0.66236 -0.193764,0.2006 -0.571105,0.60028 -0.952978,0.8092 -0.252165,0.16982 -0.710598,0.51973 -0.952981,0.80921 -0.234707,0.27473 -0.614912,0.71674 -0.96497,0.95606 -0.283431,0.14007 -0.35076,0.43614 -0.647305,0.68631 -0.172912,0.22774 -0.553115,0.66977 -0.976942,1.10291 -0.508833,0.43863 -1.29723,1.66571 -0.985856,3.02392 0.327542,1.36308 0.912083,3.69263 0.986174,4.21961 0.0061,0.5989 0.239872,1.95255 0.383713,2.54436 0.278772,0.56203 0.364059,2.16196 1.522561,3.08076 1.928524,1.29384 6.1445,4.76582 8.89789,1.46509 1.32673,-1.75908 1.711828,-2.23205 3.041744,-2.85617 0.576638,-0.39289 3.111606,-1.90796 3.434366,-2.23286 0.424337,-0.38876 0.697939,-0.58226 0.389543,-1.15083 -0.192494,-0.67737 -0.986952,-2.55041 -1.180941,-3.64419 -0.09331,-1.53791 -0.573969,-5.85109 -0.560676,-5.81097 0.0012,-0.21751 -0.114416,-0.38778 -0.25775,-0.46452 -0.220427,-0.21193 -1.630547,-1.13412 -1.813187,-1.33056 -0.294129,-0.29422 -2.153027,-1.253 -2.853124,-1.26756 -0.710828,-0.10053 -0.96024,-0.21789 -1.309656,-0.25468 -0.292001,-0.0158 -0.740781,-0.0524 -1.003982,-0.37756 -0.207729,-0.22983 -0.596892,-0.60571 -0.821186,-0.80614 z"
     id="path25"
     inkscape:export-filename="C:\Users\Pablo\Desktop\path991.png"
     inkscape:export-xdpi="299.26001"
     inkscape:export-ydpi="299.26001" />
  <path
     inkscape:connector-curvature="0"
     style="fill:#000000;fill-rule:nonzero;stroke:none;stroke-width:0.504996"
     d="m 38.21661,48.72051 c -0.101987,0.0757 -0.141738,0.14277 -0.587398,-0.0479 -0.293022,-0.25687 -0.747024,-0.22947 -1.015964,-0.23072 -0.244435,-0.0407 -0.218001,0.0266 -0.464508,0.25776 -0.116104,0.25603 -0.757963,1.3975 -0.866044,1.55543 -0.121221,0.27571 -0.355797,0.77337 -0.08387,1.02794 0.194393,0.36415 0.931321,1.23199 1.066966,1.41751 0.02038,0.27898 0.135649,0.8377 0.551455,0.48846 0.475858,-0.28816 1.260786,-0.80598 1.405506,-0.92011 0.143358,-0.24966 0.414804,-0.80818 0.389554,-1.15083 0.08278,-0.36281 0.131366,-1.74783 0.155755,-1.90904 -0.06743,-0.10071 -0.103333,-0.45842 -0.551453,-0.48848 z"
     id="path27"
     inkscape:export-filename="C:\Users\Pablo\Desktop\path991.png"
     inkscape:export-xdpi="299.26001"
     inkscape:export-ydpi="299.26001" />
  <path
     inkscape:connector-curvature="0"
     style="fill:#000000;fill-rule:nonzero;stroke:none;stroke-width:0.504996"
     d="m 39.861422,37.61989 c -0.217482,-0.0449 -0.475419,-0.0796 -0.722258,-0.20676 -0.116961,-0.16092 -0.257864,-0.18779 -0.722258,-0.20675 -0.49341,0.0527 -1.510443,0.64783 -1.699223,0.89615 -0.262292,0.1347 -0.537335,0.33873 -0.647295,0.68632 -0.08665,0.47543 -0.580456,2.17891 -0.656217,2.60734 -0.0028,0.53431 0.174884,1.51676 0.443623,1.81011 0.385543,0.40575 0.998502,1.19845 1.213808,1.42948 0.06352,0.30852 0.759414,0.8821 1.444538,0.41351 0.686703,-0.51696 1.564989,-1.38192 1.759117,-1.6304 0.291314,-0.16426 0.566307,-0.36771 0.794147,-0.67433 0.134762,-0.1806 0.313436,-0.3919 0.488471,-0.55146 0.310348,-0.2526 0.614195,-0.80965 0.671267,-0.98001 0.04411,-0.27255 0.08077,-0.72191 -0.06298,-1.03993 -0.0076,-0.21114 -0.008,-0.59846 -0.233788,-0.75821 -0.330611,-0.14406 -1.262304,-0.99469 -1.372641,-1.29461 -0.232508,-0.24485 -0.507798,-0.42933 -0.698307,-0.50045 z"
     id="path29"
     inkscape:export-filename="C:\Users\Pablo\Desktop\path991.png"
     inkscape:export-xdpi="299.26001"
     inkscape:export-ydpi="299.26001" />
  <path
     inkscape:connector-curvature="0"
     style="fill:#000000;fill-rule:nonzero;stroke:none;stroke-width:0.504996"
     d="m 36.145026,32.43839 c -0.11335,-0.21974 -0.146714,-0.47023 -0.404603,-0.47649 -0.260765,0.028 -0.479886,-0.0539 -0.722269,-0.20676 -0.131898,-0.007 -0.537201,-0.0616 -0.746233,0.0868 -0.267625,0.33768 -0.309655,0.5412 -1.075868,0.50353 -0.584795,-0.0726 -1.369993,-0.29805 -1.492484,0.17371 -0.153372,0.53918 -0.183841,1.31131 0.137946,1.933 0.294659,0.52666 0.602632,1.10052 0.77327,1.39354 0.108192,0.24653 0.18886,0.44647 0.539464,0.63532 0.318778,0.31811 1.140126,0.93385 1.71427,0.73116 0.488651,-0.16236 1.065785,-0.50317 1.246674,-0.78524 0.176451,-0.14053 0.379607,-0.25345 0.476489,-0.4046 0.180125,-0.084 0.792997,-1.26161 0.584321,-1.72624 -0.177321,-0.34147 -0.869225,-1.75379 -1.031012,-1.85805 z"
     id="path31"
     inkscape:export-filename="C:\Users\Pablo\Desktop\path991.png"
     inkscape:export-xdpi="299.26001"
     inkscape:export-ydpi="299.26001" />
  <text
     inkscape:export-ydpi="299.26001"
     inkscape:export-xdpi="299.26001"
     inkscape:export-filename="C:\Users\Pablo\Desktop\path991.png"
     id="text1014"
     y="-11.502144"
     x="88.19622"
     style="font-style:normal;font-weight:normal;font-size:16px;line-height:0.85;font-family:sans-serif;letter-spacing:0px;word-spacing:0px;fill:#ff0000;fill-opacity:1;stroke:none"
     xml:space="preserve"
     transform="rotate(29.982446)"><tspan
       style="font-style:normal;font-variant:normal;font-weight:normal;font-stretch:normal;font-size:16px;font-family:'Berenis ADF Pro';-inkscape-font-specification:'Berenis ADF Pro';text-align:center;text-anchor:middle;fill:#ff0000"
       y="-11.502144"
       x="88.19622"
       sodipodi:role="line"
       id="tspan927">waydown</tspan></text>
</svg>
